# xmcd CD database file
#
# Track frame offsets:
#	150
#	11525
#	43687
#	65587
#	77362
#	99562
#	122950
#	153625
#	176637
#	205825
#	232925
#	252400
#	276037
#	314200
#
# Disc length: 4509 seconds
#
# Revision: 0
# Processed by: cddbd v1.5.1PL0 Copyright (c) Steve Scherf et al.
# Submitted via: CDex 1.51
#
DISCID=c1119b0e
DTITLE=アストル・ピアソラ - 没後10年トリビュート
DYEAR=2002
DGENRE=Tango
TTITLE0=エル・デスバンデ
TTITLE1=ブエノスアイレスの冬
TTITLE2=アディオス・ノニーノ
TTITLE3=デカリシモ
TTITLE4=ブエノスアイレスの秋
TTITLE5=フーガと神秘
TTITLE6=1930年のカフェ〜「タンゴの歴史」より
TTITLE7=オブリヴィオン
TTITLE8=天使のミロンガ
TTITLE9=1960年のナイトクラブ
TTITLE10=ヌエストロ・ディエンボ（われらの時代）
TTITLE11=チキリン・デ・バチン
TTITLE12=バンドネオン協奏曲
TTITLE13=アディオス・ノニーノ
EXTD=YEAR: 2002
EXTT0=
EXTT1=
EXTT2=
EXTT3=
EXTT4=
EXTT5=
EXTT6=
EXTT7=
EXTT8=
EXTT9=
EXTT10=
EXTT11=
EXTT12=
EXTT13=
PLAYORDER=
